<?xml version="1.0" standalone="no"?>
<!DOCTYPE svg PUBLIC "-//W3C//DTD SVG 20010904//EN"
 "http://www.w3.org/TR/2001/REC-SVG-20010904/DTD/svg10.dtd">
<svg version="1.0" xmlns="http://www.w3.org/2000/svg"
 width="992.000000pt" height="992.000000pt" viewBox="0 0 992.000000 992.000000"
 preserveAspectRatio="xMidYMid meet">
<metadata>
Created by potrace 1.14, written by Peter Selinger 2001-2017
</metadata>
<g transform="translate(0.000000,992.000000) scale(0.100000,-0.100000)"
fill="#000000" stroke="none">
<path d="M135 9895 c-14 -13 -25 -35 -25 -48 0 -24 55 -463 88 -707 16 -119
38 -192 62 -210 3 -3 111 -160 240 -349 172 -254 235 -355 241 -385 4 -23 28
-259 54 -526 l47 -485 82 -80 c283 -277 569 -558 752 -737 l211 -208 23 -107
c12 -60 24 -118 27 -131 3 -13 29 -40 57 -61 52 -39 572 -417 986 -717 l225
-163 83 -333 c46 -183 123 -461 172 -618 94 -300 211 -679 355 -1145 81 -263
202 -653 311 -1003 l47 -152 -42 -225 c-23 -123 -47 -260 -53 -303 -14 -94
-24 -72 161 -365 165 -261 246 -390 390 -622 61 -99 121 -188 132 -197 18 -16
44 -18 199 -18 155 0 180 2 198 17 12 10 74 101 138 203 64 102 149 237 189
300 40 63 125 198 190 300 65 102 131 206 146 231 17 27 29 60 29 80 0 19 -18
142 -40 274 -22 132 -40 254 -40 271 0 16 -5 35 -11 41 -11 11 -3 36 176 618
46 149 119 387 163 530 227 739 278 905 367 1190 53 171 131 450 173 620 l78
310 274 198 c151 109 311 225 355 256 44 32 206 148 359 259 l279 202 27 130
c25 123 29 133 66 171 21 23 258 255 527 516 l487 475 0 62 c1 33 20 265 44
514 l42 453 230 341 c126 188 244 362 263 387 21 28 35 60 38 85 3 23 22 167
43 321 22 154 45 331 52 392 12 108 11 114 -8 140 -21 28 -58 39 -98 29 -12
-3 -69 -61 -126 -128 -433 -509 -632 -738 -643 -738 -7 0 -136 -11 -287 -25
-151 -14 -421 -38 -600 -54 -323 -29 -324 -29 -347 -55 -15 -17 -23 -40 -23
-62 0 -40 11 -52 135 -148 44 -34 208 -163 365 -286 157 -123 320 -251 362
-284 43 -34 78 -66 78 -72 0 -6 -31 -107 -70 -226 -65 -200 -73 -218 -107
-248 -35 -30 -262 -253 -780 -764 l-212 -210 -24 22 c-33 31 -71 29 -337 -24
-128 -25 -234 -44 -235 -42 -3 3 9 36 131 343 330 835 365 927 360 944 -3 9
-10 117 -16 240 -6 136 -15 233 -23 246 -17 33 -387 386 -416 396 -13 5 -33 6
-45 3 -11 -4 -133 -92 -270 -195 -137 -104 -255 -189 -262 -189 -8 0 -14 -6
-14 -12 0 -7 -45 -49 -100 -92 -96 -76 -100 -81 -100 -118 0 -49 35 -88 80
-88 32 0 87 24 105 45 6 7 42 37 80 67 l71 55 340 -5 340 -5 -62 -206 c-35
-113 -69 -226 -76 -251 -13 -41 -38 -67 -268 -273 -321 -286 -323 -288 -323
-324 0 -15 12 -116 27 -223 66 -478 75 -544 73 -546 -1 -2 -121 79 -267 178
-642 437 -624 425 -687 438 -32 6 -172 36 -311 66 l-253 54 -202 -44 c-111
-24 -251 -54 -312 -66 -72 -15 -119 -30 -140 -45 -141 -106 -855 -581 -855
-569 0 19 76 594 91 690 8 53 8 77 0 92 -6 12 -137 134 -291 272 l-280 251
-31 102 c-17 56 -52 170 -78 252 -26 83 -45 151 -42 152 3 1 157 3 342 6 l336
5 118 -93 117 -92 37 18 c43 20 58 36 62 64 7 46 -12 73 -98 140 -323 253
-621 479 -643 486 -14 6 -36 6 -48 2 -21 -8 -409 -374 -426 -402 -6 -9 -13
-127 -18 -263 l-7 -248 48 -127 c46 -121 210 -537 306 -778 84 -211 135 -348
131 -352 -2 -2 -119 19 -260 46 -141 28 -261 51 -266 51 -5 0 -22 -11 -39 -25
l-30 -26 -453 443 c-249 244 -481 470 -515 502 l-63 59 -70 212 c-38 117 -70
219 -70 226 0 8 37 42 83 76 45 35 255 199 467 366 l385 303 3 41 c2 31 -2 47
-21 68 l-23 27 -325 29 c-730 64 -894 80 -905 92 -15 16 -467 546 -614 720
-114 135 -115 136 -158 136 -33 1 -49 -5 -67 -24z m390 -576 c108 -126 195
-233 192 -236 -6 -5 -326 23 -333 29 -1 2 -14 89 -28 193 -15 105 -28 202 -31
218 -2 15 -3 27 -1 27 2 0 92 -104 201 -231z m9043 11 c-17 -118 -32 -216 -33
-218 -4 -5 -307 -33 -323 -30 -10 2 52 82 183 236 109 128 199 231 201 230 1
-2 -11 -100 -28 -218z m-8846 -431 l147 -12 10 -31 c103 -325 131 -417 131
-423 0 -3 -80 77 -178 178 -270 280 -299 312 -277 306 11 -3 86 -11 167 -18z
m8633 -11 c-53 -63 -446 -461 -441 -447 3 8 35 108 71 223 36 115 68 212 71
215 3 3 74 13 157 22 84 9 156 17 160 18 5 0 -3 -14 -18 -31z m-8130 -33 c44
-4 220 -20 390 -36 171 -16 314 -29 319 -29 4 0 -74 -64 -175 -143 -101 -78
-257 -200 -347 -270 -161 -126 -162 -127 -172 -102 -5 14 -41 132 -80 263 -38
130 -76 259 -85 285 l-14 48 42 -5 c23 -3 78 -8 122 -11z m7630 -7 c-4 -13
-20 -63 -35 -113 -16 -49 -54 -175 -85 -280 -32 -104 -59 -193 -62 -198 -2 -4
-35 16 -72 45 -364 286 -611 482 -607 485 4 4 671 68 849 82 15 1 17 -4 12
-21z m-5688 -378 c51 -39 93 -73 93 -75 0 -3 -78 -5 -172 -5 l-172 0 74 75
c41 41 76 75 79 75 2 0 46 -32 98 -70z m3765 -5 l73 -70 -87 -3 c-49 -1 -127
-1 -175 0 l-88 3 94 73 c52 40 98 71 102 70 4 -2 40 -34 81 -73z m-5915 -382
c38 -14 70 -28 72 -29 5 -4 -98 -342 -110 -364 -6 -11 -9 -5 -9 20 -1 19 -9
117 -19 218 -9 100 -13 182 -9 182 4 0 38 -12 75 -27z m7969 -15 c-3 -24 -13
-119 -21 -212 -9 -94 -17 -171 -19 -173 -3 -3 -111 347 -111 361 0 10 119 64
143 65 10 1 12 -10 8 -41z m-7657 -639 c67 -206 121 -379 121 -383 0 -4 -24 5
-53 22 -29 16 -122 67 -207 112 -85 46 -157 85 -159 87 -2 1 0 18 6 36 6 17
43 133 82 257 83 261 80 254 85 249 2 -2 58 -173 125 -380z m7406 328 c4 -17
41 -135 82 -260 41 -126 73 -230 71 -232 -2 -1 -77 -42 -168 -90 -91 -48 -185
-99 -209 -113 -30 -18 -43 -21 -39 -12 3 8 59 180 124 382 65 202 121 365 125
362 4 -2 11 -19 14 -37z m-1784 -413 c-38 -99 -83 -213 -99 -254 -17 -41 -73
-181 -123 -310 -51 -129 -94 -230 -95 -225 -9 30 -75 530 -72 549 2 15 79 90
228 223 124 110 226 200 228 198 1 -1 -29 -83 -67 -181z m-3873 29 c92 -82
195 -173 229 -203 59 -51 62 -56 58 -90 -3 -19 -19 -134 -36 -255 -16 -121
-32 -235 -36 -253 -5 -31 -12 -18 -73 135 -70 175 -304 765 -315 796 -4 9 -4
17 -1 17 4 0 82 -66 174 -147z m5223 -275 c-55 -166 -59 -174 -97 -199 -46
-32 -516 -291 -519 -287 -2 4 663 658 669 658 3 0 -21 -78 -53 -172z m-6313
-241 c280 -274 278 -268 37 -132 -60 34 -162 90 -225 124 l-115 62 -54 162
c-30 89 -56 169 -59 177 -6 18 79 -62 416 -393z m2881 -2014 l-1 -2078 -33
320 c-19 176 -46 446 -60 600 -15 154 -62 636 -105 1070 -44 435 -86 869 -95
965 -9 96 -36 376 -60 621 -25 246 -45 458 -45 471 0 24 6 26 193 65 105 22
195 41 200 42 4 0 7 -934 6 -2076z m396 2032 c105 -21 191 -39 192 -40 1 0
-14 -151 -32 -335 -19 -184 -51 -504 -70 -710 -20 -206 -71 -737 -115 -1180
-44 -443 -103 -1039 -131 -1325 -28 -286 -53 -522 -55 -524 -2 -2 -4 933 -4
2078 0 1662 3 2082 13 2078 6 -2 98 -21 202 -42z m2968 -268 c-126 -123 -247
-240 -269 -260 l-41 -37 -209 -6 c-143 -5 -206 -3 -199 4 6 5 168 97 360 203
193 105 402 221 465 255 63 35 116 64 118 64 1 0 -100 -100 -225 -223z m-6548
101 c66 -36 212 -116 325 -178 113 -62 252 -138 309 -169 l104 -56 -134 -3
c-74 -2 -171 0 -216 3 l-81 7 -259 255 c-195 192 -247 249 -213 230 25 -13 99
-54 165 -89z m2525 -75 c-18 -65 -112 -426 -295 -1138 -167 -646 -186 -720
-191 -734 -3 -9 -31 31 -67 95 -65 113 -276 478 -427 739 -48 83 -156 271
-241 418 -85 147 -175 305 -201 350 -26 45 -43 83 -38 85 5 2 101 -15 213 -39
l204 -42 38 -106 c40 -113 56 -138 94 -152 29 -11 126 14 134 34 3 8 88 71
189 140 100 69 278 191 393 271 116 80 211 145 212 146 1 0 -7 -30 -17 -67z
m1930 -239 c401 -275 433 -296 464 -290 47 9 68 38 111 151 21 55 41 103 44
107 3 4 102 27 218 51 l212 44 -36 -66 c-20 -36 -49 -85 -65 -108 -15 -23 -28
-43 -28 -46 0 -4 -72 -129 -280 -487 -62 -107 -146 -251 -185 -320 -40 -69
-125 -217 -190 -330 -65 -113 -137 -237 -159 -277 -22 -40 -41 -71 -42 -70 -2
2 -155 584 -281 1072 -78 303 -209 806 -220 848 -3 9 -3 17 1 17 3 0 200 -133
436 -296z m-429 -459 c56 -214 136 -525 179 -690 42 -165 102 -395 132 -511
l56 -211 -143 -424 c-79 -233 -268 -793 -420 -1244 -153 -451 -300 -889 -328
-973 -27 -84 -51 -151 -53 -149 -2 1 26 288 61 637 36 349 81 804 100 1010 19
206 62 641 94 965 33 325 72 716 86 870 28 307 101 1040 112 1120 7 61 -7 106
124 -400z m-1322 -105 c28 -289 58 -599 66 -690 9 -91 47 -475 85 -855 38
-379 76 -769 85 -865 8 -96 49 -512 91 -923 41 -412 73 -754 72 -759 -2 -6
-16 27 -30 73 -26 81 -179 533 -510 1504 -88 259 -184 542 -213 630 -29 88
-85 254 -124 369 l-72 208 72 272 c39 149 95 363 124 476 29 113 82 315 118
450 36 135 89 336 118 448 29 111 56 199 60 195 3 -5 30 -244 58 -533z m-1663
286 c7 -6 183 -320 181 -322 -1 -2 -52 25 -112 60 -61 34 -192 109 -292 165
-101 57 -183 106 -183 108 0 4 402 -7 406 -11z m4884 11 c-5 -4 -530 -301
-579 -326 -27 -15 -32 -26 104 209 l60 105 65 5 c85 7 356 12 350 7z m-5462
-111 c28 -16 51 -31 49 -33 -4 -4 -88 28 -104 40 -14 10 -18 31 -5 25 4 -1 31
-16 60 -32z m5680 13 c-3 -9 -92 -49 -108 -49 -8 0 94 60 103 60 5 0 7 -5 5
-11z m-4868 -504 c58 -21 109 -41 113 -45 9 -8 68 -222 63 -228 -3 -3 -534
375 -560 399 -10 9 182 -54 384 -126z m4370 121 c0 -3 -96 -73 -212 -157 -117
-84 -239 -173 -271 -197 -32 -24 -60 -42 -63 -39 -2 2 8 54 23 115 l27 111
156 56 c291 104 340 120 340 111z m-865 -951 c-35 -143 -73 -276 -83 -295 -11
-19 -72 -132 -137 -250 -241 -438 -267 -485 -262 -470 2 8 64 195 138 415
l134 400 124 215 c137 238 144 250 147 247 1 -1 -26 -119 -61 -262z m-2985
115 c40 -69 99 -170 131 -226 52 -88 76 -151 194 -504 75 -222 134 -404 133
-405 -2 -2 -95 164 -207 367 l-203 370 -64 260 c-35 143 -64 263 -64 266 0 10
8 -2 80 -128z m425 -1440 c34 -63 129 -239 212 -390 l150 -275 12 -110 c6 -60
34 -293 61 -518 28 -224 50 -413 49 -420 -2 -22 -27 68 -28 100 -1 17 -6 33
-11 35 -6 2 -38 91 -71 198 -34 107 -101 323 -149 480 -49 157 -121 389 -160
515 -40 127 -94 302 -120 390 -27 88 -52 169 -55 180 -9 27 34 -47 110 -185z
m2184 49 c-22 -74 -63 -206 -91 -294 -28 -88 -81 -259 -118 -380 -218 -713
-349 -1126 -350 -1103 0 15 95 843 116 1010 4 34 40 110 136 285 72 131 177
325 235 431 58 106 107 191 109 189 2 -2 -14 -64 -37 -138z m-1239 -2438 c-1
-6 -163 -134 -177 -138 -9 -3 -41 245 -93 717 -16 146 -32 281 -35 300 -3 19
65 -169 150 -419 85 -250 155 -457 155 -460z m504 679 c-42 -375 -94 -814 -99
-818 -2 -2 -44 29 -93 68 l-90 72 151 449 c82 247 151 448 152 447 1 -2 -8
-100 -21 -218z m-989 -548 c42 -134 75 -245 73 -248 -8 -7 -188 286 -188 304
0 23 32 194 35 190 2 -2 38 -112 80 -246z m1293 140 l18 -101 -98 -158 c-55
-86 -101 -159 -103 -161 -2 -3 6 29 19 69 107 349 141 457 144 455 1 -2 10
-48 20 -104z m-644 -462 l48 -40 -102 0 -102 0 49 39 c26 22 50 40 53 40 3 1
27 -17 54 -39z m281 -230 c4 -6 -22 -55 -57 -110 -35 -55 -89 -140 -120 -190
l-57 -90 -98 0 -98 0 -121 194 c-67 107 -119 197 -116 200 10 11 660 7 667 -4z"/>
<path d="M3540 4470 c-12 -8 -9 -10 13 -10 15 0 27 5 27 10 0 13 -20 13 -40 0z"/>
</g>
</svg>
