<svg id="eduardosilveira_linkedin" xmlns="http://www.w3.org/2000/svg" width="30" height="30" viewBox="0 0 30 30">
  <path id="Caminho_12259" data-name="Caminho 12259" d="M0,0H30V30H0ZM0,0H30V30H0Z" fill="none"/>
  <path id="Caminho_12273" data-name="Caminho 12273" d="M10.431,24.332H6.625V12.9h3.806V24.332Zm-.346-13.551a2.168,2.168,0,0,1-1.565.568H8.5a2.094,2.094,0,0,1-1.524-.568,1.885,1.885,0,0,1-.585-1.409A1.854,1.854,0,0,1,7,7.955a2.194,2.194,0,0,1,1.557-.56,2.106,2.106,0,0,1,1.532.56,1.948,1.948,0,0,1,.593,1.417A1.874,1.874,0,0,1,10.086,10.781ZM24.123,24.332H20.317V18.22q0-2.586-1.911-2.587a1.864,1.864,0,0,0-1.219.4,2.536,2.536,0,0,0-.741.981,2.718,2.718,0,0,0-.115.922v6.393H12.524q.049-10.347,0-11.435H16.33v1.614a3.822,3.822,0,0,1,3.411-1.878,4.125,4.125,0,0,1,3.18,1.3,5.472,5.472,0,0,1,1.2,3.839v6.558h0Z" transform="translate(0.741 -2.302)" fill="currentColor"/>
</svg>
