<svg id="history_edu_black_24dp_1_" data-name="history_edu_black_24dp (1)" xmlns="http://www.w3.org/2000/svg" width="24" height="24" viewBox="0 0 24 24">
  <g id="Grupo_13318" data-name="Grupo 13318">
    <rect id="Retângulo_23645" data-name="Retângulo 23645" width="24" height="24" fill="none"/>
  </g>
  <g id="Grupo_13320" data-name="Grupo 13320">
    <g id="Grupo_13319" data-name="Grupo 13319">
      <path id="Caminho_12264" data-name="Caminho 12264" d="M9,4V5.38a7.082,7.082,0,0,0-2.61-.5A6.973,6.973,0,0,0,1.44,6.93l3.33,3.33H5.88v1.11a4.675,4.675,0,0,0,3.11,1.36V15H6v3a2.006,2.006,0,0,0,2,2H18a3,3,0,0,0,3-3V4ZM7.89,10.41V8.26H5.61L4.57,7.22a5.07,5.07,0,0,1,1.82-.34A4.994,4.994,0,0,1,9.93,8.34l1.41,1.41-.2.2a2.7,2.7,0,0,1-1.92.8A2.769,2.769,0,0,1,7.89,10.41ZM19,17a1,1,0,0,1-2,0V15H11V12.41a4.659,4.659,0,0,0,1.56-1.03l.2-.2L15.59,14H17V12.59L11,6.62V6h8Z" fill="currentColor"/>
    </g>
  </g>
</svg>
