<svg xmlns="http://www.w3.org/2000/svg" width="30.207" height="30.894" viewBox="0 0 30.207 30.894">
  <g id="Camada_x0020_1" transform="translate(0.163 0.151)" opacity="0.85">
    <g id="Grupo_5632" data-name="Grupo 5632">
      <path id="Caminho_2869" data-name="Caminho 2869" d="M10.991,16.633l-3.7-6.408.186-.1,3.7,6.408v.083Zm.186-.1a.109.109,0,0,1-.041.145.137.137,0,0,1-.145-.041ZM13.12,9.192l-1.943,7.42-.186-.062,1.922-7.42.041-.062Zm-.207-.062a.113.113,0,0,1,.124-.083.138.138,0,0,1,.083.145Zm-3.2,2.15,3.245-2.212.124.165L9.833,11.466l-.165-.041Zm.124.186c-.062.021-.124.021-.145-.021a.125.125,0,0,1,.021-.165Zm-.289-.93.331.806-.207.083-.31-.806.124-.145Zm-.186.083a.107.107,0,0,1,.062-.145c.041-.021.1.021.124.062ZM7.415,10.06l2.067.413-.041.207-2.067-.413-.083-.041Zm-.041.207a.091.091,0,0,1-.083-.124c0-.062.062-.083.124-.083Zm.455-4.093,2.046,5.167-.207.062L7.642,6.257l.165-.124Zm-.186.083A.107.107,0,0,1,7.7,6.113c.041-.021.1.021.124.062Zm2.48,2.212L7.663,6.3l.145-.165,2.439,2.191.041.083Zm.124-.145a.089.089,0,0,1,.021.145.1.1,0,0,1-.145,0Zm-.579,3.038.413-2.976.207.021-.413,2.976-.207.021Zm.207.021c-.021.062-.062.1-.124.083-.062,0-.1-.041-.083-.1ZM7.642,6.216,7.683,4.79l.207.021L7.849,6.216,7.663,6.3Zm.207,0a.116.116,0,0,1-.124.1.083.083,0,0,1-.083-.1Zm.5.682-.682-.6.145-.165.682.6.021.062Zm.145-.165a.125.125,0,0,1,0,.165.1.1,0,0,1-.145,0Zm-.6-1.964.62,2.026L8.3,6.857,7.7,4.831,7.683,4.79ZM7.7,4.831c-.021-.062,0-.124.062-.124a.087.087,0,0,1,.124.062ZM9.027,3.756,7.87,4.872l-.145-.145L8.882,3.612h.145Zm-.145-.145a.1.1,0,0,1,.145.145Zm1.447,1.261-1.447-1.1.145-.165,1.426,1.1-.062.186Zm.124-.165a.1.1,0,0,1,.021.145.089.089,0,0,1-.145.021ZM7.787,4.686h2.6v.207l-2.6.021-.062-.186Zm0,.227a.114.114,0,0,1,0-.227Zm2.542-.041a.1.1,0,0,1-.021-.145.127.127,0,0,1,.145-.021Zm.682.537-.682-.537.124-.165.682.537Zm.124-.165a.1.1,0,0,1,.021.145.127.127,0,0,1-.145.021Zm.041,11.306,3.762,11.1-.207.062-3.741-11.1v-.062Zm-.186.062a.1.1,0,1,1,.186-.062Zm2.129-7.42-1.943,7.42-.186-.062,1.922-7.42.207.021Zm-.207-.062a.113.113,0,0,1,.124-.083.138.138,0,0,1,.083.145Zm1.819,18.561L12.913,9.172l.207-.021,1.819,18.52-.207.041Zm.207-.021a.131.131,0,0,1-.1.124.111.111,0,0,1-.1-.1Zm.021-18.913-.021,18.933h-.207l.021-18.933.083-.1Zm-.207,0a.1.1,0,1,1,.207,0ZM13,9.048l1.84-.393.041.207-1.84.393-.124-.083Zm.041.207a.091.091,0,0,1-.124-.083c-.021-.041.021-.1.083-.124Zm1.695,18.437L12.913,9.172l.207-.021,1.819,18.52v.021Zm.207-.021a.131.131,0,0,1-.1.124.111.111,0,0,1-.1-.1ZM13.058,22.09l1.881,5.56-.207.062-1.881-5.539v-.021Zm-.207.083a.138.138,0,0,1,.083-.145c.041-.021.1.021.124.062Zm.765,6.428-.765-6.449.207-.041.765,6.47-.041.083Zm.207-.021a.1.1,0,0,1-.083.1.091.091,0,0,1-.124-.083Zm1.075-.806-1.116.889-.124-.165,1.116-.889.165.041Zm-.124-.165a.1.1,0,0,1,.145,0,.125.125,0,0,1-.021.165Zm-1.9-5.415L10.04,17.026l.165-.1,2.852,5.167v.021Zm.186-.1a.137.137,0,0,1-.041.145.119.119,0,0,1-.145-.041Zm.558,6.511-.765-6.449.207-.041.765,6.47-.207.041Zm.207-.021a.1.1,0,0,1-.083.1.091.091,0,0,1-.124-.083Zm-3.6-11.637,3.6,11.616-.207.062-3.6-11.616.186-.083Zm-.207.062a.118.118,0,0,1,.083-.145.129.129,0,0,1,.124.083Zm2.852,5.188L10.04,17.026l.165-.1,2.852,5.167h0Zm.186-.1a.137.137,0,0,1-.041.145.119.119,0,0,1-.145-.041Zm-1.881-5.539,1.881,5.539-.207.083-1.86-5.56.186-.083Zm-.186.062a.1.1,0,1,1,.186-.062ZM9.316,13.326l1.86,3.2-.186.1-1.84-3.2-.021-.021Zm-.165.1a.089.089,0,0,1,.041-.145.083.083,0,0,1,.124.041Zm.868,3.555L9.13,13.409l.207-.062.889,3.6-.186.083Zm.207-.041c.021.062-.021.1-.083.124-.041.021-.1-.021-.124-.083Zm-4.485-4.9L9.688,14.9l-.124.165L5.637,12.21l.083-.186Zm-.1.165a.109.109,0,0,1-.041-.145.1.1,0,0,1,.145-.021Zm3.555,1.261-3.535-1.24.062-.207,3.555,1.261.062.062Zm.083-.186c.041,0,.083.062.062.124a.107.107,0,0,1-.145.062ZM9.523,15,9.13,13.409l.207-.062.393,1.612-.165.1Zm.207-.041c.021.041-.021.1-.083.124-.041.021-.1-.021-.124-.083ZM5.6,12.148,5.41,11.3l.186-.041.186.847-.124.124Zm.186-.041c.021.041-.021.1-.062.124-.062,0-.124-.021-.124-.083Zm3.41,1.364-3.535-1.24.062-.207,3.555,1.261H9.3Zm.083-.186c.041,0,.083.062.062.124a.107.107,0,0,1-.145.062ZM5.555,11.177,9.3,13.285l-.1.186L5.451,11.363,5.41,11.3Zm-.1.186a.119.119,0,0,1-.041-.145.128.128,0,0,1,.145-.041Zm2.584.062-2.542-.041.021-.207,2.542.021.083.062Zm.021-.227a.114.114,0,1,1-.021.227Zm1.1,2.232-1.2-2.067.186-.1,1.178,2.067-.124.145Zm.165-.1a.1.1,0,0,1-.021.145.119.119,0,0,1-.145-.041Zm-3.762-2.15L9.3,13.285l-.1.186L5.451,11.363l.062-.186Zm-.1.186a.119.119,0,0,1-.041-.145.128.128,0,0,1,.145-.041Zm2.542.041L2.227,8.242l.1-.186L8.1,11.218l-.062.207Zm.1-.186a.106.106,0,1,1-.1.186Zm-2.584-.041,2.542.021-.021.227-2.542-.041-.062-.021Zm-.021.207a.111.111,0,0,1-.1-.1.131.131,0,0,1,.124-.1ZM2.351,8.056,5.575,11.2l-.145.165L2.206,8.221l.124-.165Zm-.145.165a.1.1,0,0,1,0-.145.1.1,0,0,1,.145-.021ZM4.356,9.4,2.227,8.242l.1-.186L4.459,9.213l.062.062Zm.1-.186c.062.041.083.1.041.145a.089.089,0,0,1-.145.041ZM3.24,5.389,4.521,9.275l-.207.062L3.053,5.451V5.389Zm-.186.062a.092.092,0,0,1,.062-.124.1.1,0,0,1,.124.062ZM2.185,8.118l.868-2.728.186.062L2.371,8.18l-.145.062Zm.186.062c0,.041-.062.083-.124.062a.092.092,0,0,1-.062-.124ZM4.459,9.213l3.638,2-.1.186-3.638-2-.041-.062Zm-.1.186a.119.119,0,0,1-.041-.145.137.137,0,0,1,.145-.041ZM3.777,7l.744,2.274-.207.062L3.57,7.063l.165-.1Zm-.207.062a.1.1,0,0,1,.062-.124A.107.107,0,0,1,3.777,7Zm4.4,4.32L3.591,7.1l.145-.145,4.382,4.279-.124.165Zm.145-.145a.1.1,0,0,1-.145.145ZM3.24,5.451,2.371,8.18l-.186-.062.868-2.728.124-.062Zm-.186-.062a.1.1,0,0,1,.124-.062.092.092,0,0,1,.062.124ZM2.02,4.872l1.157.455-.062.186L1.958,5.058l-.083-.083Zm-.062.186A.107.107,0,0,1,1.9,4.914a.1.1,0,0,1,.124-.041Zm.227,3.1-.31-3.183L2.1,4.955l.289,3.183-.021.041Zm.207-.021a.111.111,0,0,1-.1.1.1.1,0,0,1-.1-.083ZM2.02,4.872l1.157.455-.062.186L1.958,5.058,1.9,5.017Zm-.062.186A.107.107,0,0,1,1.9,4.914a.1.1,0,0,1,.124-.041ZM.449,2.475,2.082,4.914l-.186.1L.263,2.6l.165-.145ZM.263,2.6C.242,2.557.242,2.475.3,2.454a.1.1,0,0,1,.145.021ZM3.074,5.492.284,2.619l.145-.165,2.79,2.894-.1.165Zm.145-.145a.1.1,0,1,1-.145.145Zm-.165.1L2.227,2.764,2.433,2.7,3.24,5.389l-.021.124Zm.186-.062a.107.107,0,0,1-.062.145.113.113,0,0,1-.124-.083ZM6.216,3.157l-3,2.356-.145-.165L6.092,2.991l.062-.021Zm-.124-.165a.089.089,0,0,1,.145.021.1.1,0,0,1-.021.145ZM2.33,2.619l3.824.351v.207L2.33,2.826l-.1-.062Zm0,.207a.1.1,0,1,1,0-.207ZM.1-.047,2.413,2.661l-.165.124L-.068.077-.088.036ZM-.068.077A.1.1,0,0,1-.047-.068.1.1,0,0,1,.1-.047Zm.31,2.48L-.088.036.118-.006.449,2.516l-.1.124Zm.207-.041a.091.091,0,0,1-.083.124.14.14,0,0,1-.124-.083Zm1.86.31L.346,2.64l.021-.207,1.964.186.083.041Zm.021-.207a.116.116,0,0,1,.1.124c0,.041-.062.083-.124.083Zm.723,2.832L2.227,2.764,2.433,2.7,3.24,5.389l-.165.1Zm.186-.062a.107.107,0,0,1-.062.145.113.113,0,0,1-.124-.083ZM.428,2.454l2.79,2.894-.145.145L.284,2.619l.083-.186Zm-.145.165a.126.126,0,0,1,0-.165.1.1,0,0,1,.145,0Zm2.026.207L.346,2.64l.021-.207,1.964.186.1.083Zm.021-.207a.116.116,0,0,1,.1.124c0,.041-.062.083-.124.083ZM15.889,28.684l-1.116-.909.124-.165,1.137.93-.083.186Zm.145-.145c.041.021.041.083,0,.145-.021.041-.1.041-.145,0Zm-2.315-.062,2.253.021-.021.227-2.232-.041-.062-.186Zm0,.207a.1.1,0,0,1-.1-.1.111.111,0,0,1,.1-.1Zm1.178-.909-1.116.889-.124-.165,1.116-.889H14.9Zm-.124-.165a.1.1,0,0,1,.145,0,.125.125,0,0,1-.021.165ZM18.535,16.53l3.7-6.408.165.1-3.7,6.408-.186-.021Zm.165.1a.1.1,0,0,1-.124.041c-.062-.041-.083-.1-.041-.145Zm-1.9-7.5,1.922,7.42-.207.062-1.922-7.42.165-.124Zm-.207.062a.118.118,0,0,1,.083-.145.129.129,0,0,1,.124.083Zm3.286,2.274L16.633,9.234l.124-.165L20,11.28l.021.145ZM20,11.28a.125.125,0,0,1,.021.165.127.127,0,0,1-.145.021Zm.351-.661-.331.806-.186-.083.31-.806.083-.062Zm-.207-.083a.111.111,0,1,1,.207.083Zm2.191-.269-2.067.413-.041-.207L22.3,10.06l.1.165ZM22.3,10.06a.113.113,0,0,1,.124.083.091.091,0,0,1-.083.124Zm-.227-3.8L20.044,11.4l-.207-.062,2.026-5.167.041-.041Zm-.207-.083a.111.111,0,0,1,.207.083Zm-2.418,2.15L21.9,6.133l.124.165-2.439,2.17-.165-.062Zm.145.145a.1.1,0,0,1-.145-.145Zm.248,2.914-.413-2.976.207-.021.413,2.976V11.4Zm.207-.021a.1.1,0,0,1-.083.1.091.091,0,0,1-.124-.083Zm1.819-5.147L21.8,4.81l.207-.021.062,1.426-.041.083Zm.207,0a.1.1,0,0,1-.207,0Zm-.847.517.682-.6.124.165-.661.6-.165-.1Zm.145.165c-.041.041-.124.041-.145,0a.125.125,0,0,1,0-.165Zm.641-2.067-.62,2.026L21.2,6.795l.6-2.026.207.021ZM21.8,4.769a.107.107,0,0,1,.145-.062c.041,0,.083.062.062.124Zm-.971-1.157,1.157,1.116-.145.145L20.685,3.756V3.612Zm-.145.145a.1.1,0,0,1,0-.145c.021-.041.1-.041.145,0Zm-1.447.951,1.447-1.1.124.165-1.426,1.1-.062.021Zm.145.165c-.062.041-.124.041-.145-.021a.1.1,0,0,1,0-.145Zm2.522.041L19.32,4.893V4.686H21.9l.083.041Zm0-.227a.116.116,0,0,1,.1.124.111.111,0,0,1-.1.1Zm-2.666.021a.156.156,0,0,1,.165.021c.021.041.021.124-.021.145Zm-.661.537.661-.537.145.165L18.7,5.41Zm.124.165c-.041.021-.124.021-.145-.021a.087.087,0,0,1,.021-.145Zm.021,11.2-3.741,11.1-.207-.062,3.741-11.1h.207Zm-.207-.062a.107.107,0,0,1,.145-.062.1.1,0,0,1,.062.124ZM16.8,9.13l1.922,7.42-.207.062-1.922-7.42V9.151Zm-.207.062a.118.118,0,0,1,.083-.145.129.129,0,0,1,.124.083ZM14.773,27.671l1.819-18.52.207.021L14.98,27.692v.021Zm.207.021a.116.116,0,0,1-.124.1c-.041-.021-.1-.062-.083-.124ZM14.959,8.758l.021,18.933h-.207L14.752,8.758l.124-.1Zm-.207,0a.1.1,0,1,1,.207,0Zm1.922.5-1.84-.393.041-.207,1.84.393.083.124Zm.041-.207a.129.129,0,0,1,.083.124c-.021.062-.062.1-.124.083ZM14.773,27.671l1.819-18.52.207.021L14.98,27.692h-.207Zm.207.021a.116.116,0,0,1-.124.1c-.041-.021-.1-.062-.083-.124Zm1.86-5.519-1.86,5.539-.207-.062,1.881-5.56.186.062Zm-.186-.083a.1.1,0,0,1,.124-.062.107.107,0,0,1,.062.145Zm-.765,6.49.744-6.47.207.041L16.1,28.6l-.165.062Zm.207.021c-.021.062-.062.1-.124.083-.062,0-.1-.041-.083-.1Zm-1.157-.992,1.116.889-.124.165-1.116-.889-.041-.124Zm-.124.165a.108.108,0,0,1-.021-.165.1.1,0,0,1,.145,0Zm1.84-5.684,2.832-5.167.186.1L16.84,22.194l-.207-.083Zm.186.1a.128.128,0,0,1-.145.041.137.137,0,0,1-.041-.145Zm-.951,6.387.744-6.47.207.041L16.1,28.6v.021Zm.207.021c-.021.062-.062.1-.124.083-.062,0-.1-.041-.083-.1Zm3.576-11.6L16.1,28.622l-.207-.062,3.6-11.616v-.021Zm-.186-.062a.113.113,0,0,1,.124-.083.107.107,0,0,1,.062.145ZM16.654,22.09l2.832-5.167.186.1L16.84,22.194l-.186-.1Zm.186.1a.128.128,0,0,1-.145.041.137.137,0,0,1-.041-.145Zm1.881-5.581-1.881,5.56-.186-.083,1.86-5.539.021-.021Zm-.207-.062a.107.107,0,0,1,.145-.062.1.1,0,0,1,.062.124Zm2.046-3.121-1.86,3.2-.165-.1,1.84-3.2.186.083Zm-.186-.1a.109.109,0,0,1,.145-.041c.062.021.062.083.041.145Zm-.889,3.617.889-3.6.186.062-.868,3.576-.021.041Zm.207.041a.118.118,0,0,1-.145.083.1.1,0,0,1-.062-.124Zm4.382-4.775-3.948,2.852L20,14.9l3.948-2.852.021-.021Zm-.124-.165a.1.1,0,0,1,.145.021.1.1,0,0,1-.021.145Zm-3.514,1.24,3.535-1.261.083.207L20.5,13.471l-.124-.124Zm.062.186a.092.092,0,0,1-.124-.062c-.021-.062,0-.124.062-.124Zm-.537,1.488.413-1.612.186.062L20.168,15l-.041.062Zm.207.041a.091.091,0,0,1-.124.083.129.129,0,0,1-.083-.124Zm3.741-2.894.186-.847.207.041-.186.847-.062.083Zm.207.041c0,.062-.062.083-.124.083a.129.129,0,0,1-.083-.124Zm-3.679,1.137,3.535-1.261.083.207L20.5,13.471l-.083-.186Zm.062.186a.092.092,0,0,1-.124-.062c-.021-.062,0-.124.062-.124Zm3.762-2.108-3.741,2.108-.1-.186,3.741-2.108.145.124Zm-.1-.186a.137.137,0,0,1,.145.041.119.119,0,0,1-.041.145Zm-2.5.021,2.542-.021v.207l-2.542.041-.083-.165Zm0,.227a.111.111,0,0,1-.1-.1.116.116,0,0,1,.1-.124Zm-1.282,1.9,1.2-2.067.186.1-1.2,2.067-.041.041Zm.186.1a.128.128,0,0,1-.145.041.137.137,0,0,1-.041-.145Zm3.7-2.067-3.741,2.108-.1-.186,3.741-2.108H24.2Zm-.1-.186a.137.137,0,0,1,.145.041.119.119,0,0,1-.041.145Zm-2.542.041,5.767-3.162.083.186L21.718,11.4l-.062.021Zm.1.186a.119.119,0,0,1-.145-.041.089.089,0,0,1,.041-.145Zm2.48-.021-2.542.041V11.2l2.542-.021.083.186Zm0-.207a.1.1,0,1,1,0,.207Zm3.307-2.956-3.224,3.142-.145-.165,3.224-3.142h.021Zm-.145-.165a.1.1,0,0,1,.145.021.1.1,0,0,1,0,.145ZM25.232,9.213l2.15-1.157.083.186L25.335,9.4l-.145-.124Zm.1.186c-.041.041-.1.021-.145-.041a.137.137,0,0,1,.041-.145Zm1.323-3.948L25.4,9.337l-.207-.062,1.261-3.886h.207Zm-.207-.062a.126.126,0,0,1,.145-.062c.041.021.083.083.062.124Zm.868,2.79-.868-2.728.207-.062.868,2.728-.062.124Zm.207-.062c.021.041-.021.1-.062.124a.126.126,0,0,1-.145-.062ZM25.335,9.4l-3.617,2-.1-.186,3.617-2,.165.124Zm-.1-.186a.119.119,0,0,1,.145.041.089.089,0,0,1-.041.145Zm.909-2.15L25.4,9.337l-.207-.062L25.935,7l.021-.041ZM25.935,7a.092.092,0,0,1,.124-.062.113.113,0,0,1,.083.124Zm-4.341,4.237L25.955,6.96,26.1,7.1l-4.361,4.279-.021.021Zm.145.145c-.041.041-.124.041-.145,0a.1.1,0,0,1,0-.145Zm4.919-5.994.868,2.728-.207.062-.868-2.728.062-.124Zm-.207.062c-.021-.041.021-.1.083-.124.041-.021.1.021.124.062Zm1.3-.393L26.6,5.513l-.083-.186,1.157-.455.145.1Zm-.083-.186a.119.119,0,0,1,.145.041.107.107,0,0,1-.062.145ZM27.32,8.138l.289-3.183.207.021-.289,3.183-.207.021Zm.207.021c0,.041-.062.083-.1.083a.111.111,0,0,1-.1-.1Zm.227-3.1L26.6,5.513l-.083-.186,1.157-.455.124.145Zm-.083-.186a.119.119,0,0,1,.145.041.107.107,0,0,1-.062.145ZM29.428,2.6,27.8,5.017l-.165-.1,1.633-2.439.021-.021Zm-.165-.124a.1.1,0,0,1,.145-.021.1.1,0,0,1,.021.145Zm-2.79,2.873,2.811-2.894.145.165-2.79,2.873-.041.021Zm.165.145a.1.1,0,0,1-.145,0,.127.127,0,0,1-.021-.145Zm-.186-.1L27.278,2.7l.207.062-.827,2.687-.165.062Zm.207.062a.129.129,0,0,1-.124.083.118.118,0,0,1-.083-.145ZM23.62,2.991l3,2.356-.124.165-3-2.356.041-.186Zm-.124.165a.089.089,0,0,1-.021-.145.087.087,0,0,1,.145-.021Zm3.886-.331-3.824.351-.021-.207,3.824-.351.124.145Zm-.021-.207a.116.116,0,0,1,.124.1.111.111,0,0,1-.1.1Zm2.4-2.542L27.464,2.785,27.3,2.661,29.614-.047,29.8.036Zm-.145-.124a.1.1,0,0,1,.145-.021.1.1,0,0,1,0,.145Zm-.372,2.563.351-2.522L29.8.036l-.351,2.522-.083.083Zm.207.041c0,.041-.062.083-.1.083a.116.116,0,0,1-.1-.124Zm-2.088.062,1.984-.186.021.207-1.984.186L27.3,2.661Zm.021.207a.1.1,0,0,1-.1-.083.091.091,0,0,1,.083-.124Zm-.93,2.563L27.278,2.7l.207.062-.827,2.687-.021.041Zm.207.062a.129.129,0,0,1-.124.083.118.118,0,0,1-.083-.145Zm2.77-2.832-2.79,2.873-.165-.145,2.811-2.894.062-.021Zm-.145-.165a.1.1,0,0,1,.145,0,.126.126,0,0,1,0,.165Zm-1.922.165,1.984-.186.021.207-1.984.186-.1-.124Zm.021.207a.1.1,0,0,1-.1-.083.091.091,0,0,1,.083-.124Zm-13.7,25.713,1.137-.93.124.165-1.137.909-.062.041Zm.124.145a.1.1,0,0,1-.145,0c-.021-.062-.021-.124.021-.145Zm2.191,0-2.253.041V28.5l2.253-.021.062.021Zm0-.207a.133.133,0,0,1,.1.1.1.1,0,0,1-.1.1Zm-1.054-.868,1.116.889-.124.165-1.116-.889v-.165Zm-.124.165a.108.108,0,0,1-.021-.165.1.1,0,0,1,.145,0Zm2.108-2.542c0-.041.021-.1.083-.1a.091.091,0,0,1,.124.083Zm.1,0h0l.1-.021Zm-.041.331-.062-.331.207-.021.062.31Zm.207-.041a.14.14,0,0,1-.083.124c-.062,0-.124-.041-.124-.083Zm.062,1.612-.269-1.571.207-.041.269,1.592v.062Zm.207-.021c.021.041-.021.1-.083.1-.062.021-.1-.021-.124-.083Zm-2.232,3.224,2.046-3.266.186.1-2.067,3.266-.083.062Zm.165.1c-.021.062-.083.062-.145.041a.1.1,0,0,1-.021-.145Zm-.558-.145.475-.021V30.5h-.475Zm.021.207a.116.116,0,0,1-.124-.1.111.111,0,0,1,.1-.1Zm-.455-.227.455.021-.021.207H14.38l-.083-.062Zm-.021.227a.114.114,0,1,1,.021-.227Zm-1.943-3.431,2.046,3.266-.186.1-2.046-3.266-.021-.062Zm-.186.1a.106.106,0,0,1,.186-.1Zm.537-1.943-.351,1.9-.207-.021.351-1.9Zm-.207-.021a.091.091,0,0,1,.124-.083c.041,0,.083.062.083.1Z" transform="translate(0.09 0.09)" fill="none" stroke="#a4a4a4" stroke-linecap="round" stroke-linejoin="round" stroke-width="0.3"/>
    </g>
  </g>
</svg>
